<svg width="64" height="64" viewBox="0 0 64 64" fill="none" xmlns="http://www.w3.org/2000/svg">
<rect x="0.5" y="0.5" width="63" height="63" rx="12.5" fill="white"/>
<rect x="0.5" y="0.5" width="63" height="63" rx="12.5" stroke="#DCE0E5"/>
<rect x="15" y="11" width="42" height="2" rx="1" transform="rotate(90 15 11)" fill="#FC5B1C"/>
<path d="M32.0001 30C36.4488 30 40.0551 26.444 40.0551 22.0574C40.0551 17.6709 36.4488 14.1149 32.0001 14.1149C27.5514 14.1149 23.945 17.6709 23.945 22.0574C23.945 26.444 27.5514 30 32.0001 30Z" fill="#0070F2" stroke="#0070F2" stroke-width="1.2"/>
<path d="M32 18V22.5C32 22.6656 32.1344 22.8 32.3 22.8H35.6" stroke="white" stroke-width="1.5" stroke-linecap="round"/>
<path d="M25.8724 12C25.1836 12.1927 24.5555 12.5714 24.0513 13.098C23.5471 13.6246 23.1845 14.2806 23 15M38.1276 12C38.8164 12.1927 39.4445 12.5714 39.9487 13.098C40.4529 13.6246 40.8155 14.2806 41 15" stroke="#FDB421" stroke-width="1.5" stroke-linecap="round"/>
<path d="M44.0001 52.6666C48.4488 52.6666 52.0551 49.1107 52.0551 44.7241C52.0551 40.3376 48.4488 36.7816 44.0001 36.7816C39.5514 36.7816 35.945 40.3376 35.945 44.7241C35.945 49.1107 39.5514 52.6666 44.0001 52.6666Z" fill="#0070F2" stroke="#0070F2" stroke-width="1.2"/>
<path d="M44 40.6667V45.1667C44 45.3323 44.1344 45.4667 44.3 45.4667H47.6" stroke="white" stroke-width="1.5" stroke-linecap="round"/>
<path d="M37.8724 34.6667C37.1836 34.8594 36.5555 35.238 36.0513 35.7647C35.5471 36.2913 35.1845 36.9473 35 37.6667M50.1276 34.6667C50.8164 34.8594 51.4445 35.238 51.9487 35.7647C52.4529 36.2913 52.8155 36.9473 53 37.6667" stroke="#FDB421" stroke-width="1.5" stroke-linecap="round"/>
<path d="M14 22C14 21.4477 14.4477 21 15 21H21C21.5523 21 22 21.4477 22 22C22 22.5523 21.5523 23 21 23H15C14.4477 23 14 22.5523 14 22Z" fill="#FC5B1C"/>
<path d="M14 45C14 44.4477 14.4477 44 15 44H33C33.5523 44 34 44.4477 34 45C34 45.5523 33.5523 46 33 46H15C14.4477 46 14 45.5523 14 45Z" fill="#FC5B1C"/>
</svg>
